{"asset":{"generator":"glTF-Transform v4.2.1","version":"2.0"},"accessors":[{"type":"SCALAR","componentType":5123,"count":19134,"bufferView":0,"byteOffset":0},{"type":"VEC3","componentType":5126,"count":4789,"max":[0.15582150220870972,0.49342140555381775,0.15144239366054535],"min":[-0.15070055425167084,-0.49954649806022644,-0.12730109691619873],"bufferView":1,"byteOffset":0},{"type":"VEC2","componentType":5126,"count":4789,"bufferView":1,"byteOffset":12}],"bufferViews":[{"buffer":0,"byteOffset":0,"byteLength":38268,"target":34963},{"buffer":0,"byteOffset":38268,"byteLength":95780,"byteStride":20,"target":34962}],"samplers":[{"wrapS":10497,"wrapT":10497}],"textures":[{"sampler":0,"extensions":{"EXT_texture_webp":{"source":0}}}],"images":[{"mimeType":"image/webp","uri":"baseColor.webp"}],"buffers":[{"uri":"man.bin","byteLength":134048}],"materials":[{"pbrMetallicRoughness":{"baseColorTexture":{"index":0}}}],"meshes":[{"name":"geometry_0","extras":{"processed":true},"primitives":[{"attributes":{"POSITION":1,"TEXCOORD_0":2},"mode":4,"material":0,"indices":0}]}],"nodes":[{"name":"geometry_0","mesh":0}],"scenes":[{"nodes":[0]}],"scene":0,"extensionsUsed":["EXT_texture_webp"],"extensionsRequired":["EXT_texture_webp"]}