{
    "asset": {
        "version": "2.0",
        "generator": "Open Asset Import Library (assimp v5.2.cf7d3637)"
    },
    "extensionsUsed": [
        "KHR_materials_volume",
        "FB_ngon_encoding"
    ],
    "accessors": [
        {
            "bufferView": 0,
            "byteOffset": 0,
            "componentType": 5126,
            "count": 19140,
            "type": "VEC3",
            "max": [
                0.15582150220870973,
                0.49342140555381777,
                0.15144239366054536
            ],
            "min": [
                -0.15070055425167085,
                -0.49954649806022646,
                -0.12730109691619874
            ]
        },
        {
            "bufferView": 1,
            "byteOffset": 0,
            "componentType": 5126,
            "count": 19140,
            "type": "VEC2",
            "max": [
                0.9995594620704651,
                0.9995594620704651
            ],
            "min": [
                0.0004405286454129964,
                0.0004405379295349121
            ]
        },
        {
            "bufferView": 2,
            "byteOffset": 0,
            "componentType": 5125,
            "count": 19140,
            "type": "SCALAR",
            "max": [
                19139
            ],
            "min": [
                0
            ]
        }
    ],
    "buffers": [
        {
            "byteLength": 459360,
            "uri": "result.bin"
        }
    ],
    "bufferViews": [
        {
            "buffer": 0,
            "byteOffset": 0,
            "byteLength": 229680,
            "target": 34962
        },
        {
            "buffer": 0,
            "byteOffset": 229680,
            "byteLength": 153120,
            "target": 34962
        },
        {
            "buffer": 0,
            "byteOffset": 382800,
            "byteLength": 76560,
            "target": 34963
        }
    ],
    "images": [
        {
            "uri": "data:image/png;base64,"
        }
    ],
    "materials": [
        {
            "name": "material",
            "pbrMetallicRoughness": {
                "baseColorTexture": {
                    "index": 0
                }
            }
        },
        {
            "name": "material"
        }
    ],
    "meshes": [
        {
            "name": "geometry_0",
            "primitives": [
                {
                    "mode": 4,
                    "material": 0,
                    "indices": 2,
                    "attributes": {
                        "POSITION": 0,
                        "TEXCOORD_0": 1
                    }
                }
            ]
        }
    ],
    "nodes": [
        {
            "name": "world",
            "children": [
                1
            ]
        },
        {
            "name": "geometry_0",
            "mesh": 0
        }
    ],
    "samplers": [
        {}
    ],
    "scenes": [
        {
            "nodes": [
                0
            ]
        }
    ],
    "textures": [
        {
            "source": 0,
            "sampler": 0
        }
    ],
    "scene": 0
}